<svg xmlns="http://www.w3.org/2000/svg" width="64" height="64" viewBox="0 0 64 64" fill="none">
  <defs>
    <linearGradient id="g" x1="0" y1="0" x2="64" y2="64" gradientUnits="userSpaceOnUse">
      <stop offset="0" stop-color="#a78bfa"/>
      <stop offset="1" stop-color="#7c3aed"/>
    </linearGradient>
  </defs>
  <circle cx="32" cy="36" r="20" fill="url(#g)" opacity="0.15"/>
  <path d="M12 28c0-8 6.5-14.5 14.5-14.5h11C45.5 13.5 52 20 52 28v6c0 8-6.5 14.5-14.5 14.5h-11C18.5 48.5 12 42 12 34v-6Z" fill="#fff" stroke="#7c3aed" stroke-width="2" stroke-linecap="round" stroke-linejoin="round"/>
  <path d="M20 20l-4-6" stroke="#7c3aed" stroke-width="2" stroke-linecap="round"/>
  <path d="M44 20l4-6" stroke="#7c3aed" stroke-width="2" stroke-linecap="round"/>
  <circle cx="25" cy="30" r="3" fill="#7c3aed"/>
  <circle cx="39" cy="30" r="3" fill="#7c3aed"/>
  <path d="M28 38c2 1.5 6 1.5 8 0" stroke="#7c3aed" stroke-width="2" stroke-linecap="round"/>
  <path d="M22 42c3 2 17 2 20 0" stroke="#a78bfa" stroke-width="2" stroke-linecap="round" opacity="0.6"/>
</svg>